<svg width="71" height="9" viewBox="0 0 71 9" fill="none" xmlns="http://www.w3.org/2000/svg">
<path d="M0.431998 0.635994C0.431998 0.499994 0.391998 0.387994 0.311998 0.299994C0.239998 0.211993 0.135998 0.111993 -2.30968e-06 -6.67572e-06H2.772C3.196 -6.67572e-06 3.56 0.0519934 3.864 0.155993C4.168 0.259994 4.416 0.399994 4.608 0.575994C4.808 0.751993 4.956 0.959993 5.052 1.19999C5.148 1.43199 5.196 1.68399 5.196 1.95599C5.196 2.36399 5.068 2.73999 4.812 3.08399C4.564 3.42799 4.172 3.66799 3.636 3.80399C3.996 3.87599 4.304 3.98799 4.56 4.13999C4.824 4.29199 5.04 4.47199 5.208 4.67999C5.376 4.87999 5.5 5.10399 5.58 5.35199C5.66 5.59999 5.7 5.85599 5.7 6.11999C5.7 6.43999 5.648 6.73999 5.544 7.01999C5.44 7.29999 5.276 7.54399 5.052 7.75199C4.836 7.95199 4.56 8.11199 4.224 8.23199C3.888 8.34399 3.492 8.39999 3.036 8.39999H-2.30968e-06C0.135998 8.26399 0.239998 8.13999 0.311998 8.02799C0.391998 7.91599 0.431998 7.78399 0.431998 7.63199V0.635994ZM1.56 7.63199H2.736C3.056 7.63199 3.328 7.59199 3.552 7.51199C3.784 7.42399 3.972 7.30799 4.116 7.16399C4.26 7.01199 4.364 6.83599 4.428 6.63599C4.5 6.43599 4.536 6.22399 4.536 5.99999C4.536 5.76799 4.496 5.55199 4.416 5.35199C4.344 5.14399 4.224 4.96399 4.056 4.81199C3.888 4.65999 3.672 4.53999 3.408 4.45199C3.152 4.36399 2.844 4.31999 2.484 4.31999H1.56V7.63199ZM2.46 3.50399C2.756 3.50399 3.008 3.46799 3.216 3.39599C3.432 3.32399 3.604 3.22799 3.732 3.10799C3.868 2.98799 3.968 2.84799 4.032 2.68799C4.096 2.51999 4.128 2.33999 4.128 2.14799C4.128 1.96399 4.1 1.78799 4.044 1.61999C3.988 1.45199 3.896 1.30399 3.768 1.17599C3.648 1.04799 3.488 0.947994 3.288 0.875993C3.096 0.795994 2.864 0.755994 2.592 0.755994H1.56V3.50399H2.46ZM6.9945 0.851994C6.9945 0.667994 6.9545 0.515994 6.8745 0.395993C6.8025 0.267993 6.6985 0.135993 6.5625 -6.67572e-06H9.2025C9.6505 -6.67572e-06 10.0385 0.0599933 10.3665 0.179993C10.7025 0.299994 10.9785 0.463994 11.1945 0.671993C11.4105 0.879993 11.5705 1.12399 11.6745 1.40399C11.7785 1.68399 11.8305 1.98399 11.8305 2.30399C11.8305 2.77599 11.7185 3.20399 11.4945 3.58799C11.2705 3.97199 10.9065 4.27199 10.4025 4.48799L11.9985 7.45199C12.1905 7.80399 12.4945 8.11999 12.9105 8.39999H10.9785C11.0505 8.23999 11.0705 8.09199 11.0385 7.95599C11.0065 7.81999 10.9545 7.67599 10.8825 7.52399L9.4185 4.73999C9.3065 4.75599 9.1905 4.76799 9.0705 4.77599C8.9505 4.78399 8.8225 4.78799 8.6865 4.78799H8.1225V7.61999C8.1225 7.80399 8.1585 7.94799 8.2305 8.05199C8.3025 8.15599 8.4065 8.27199 8.5425 8.39999H6.5745C6.7105 8.26399 6.8145 8.13599 6.8865 8.01599C6.9585 7.88799 6.9945 7.73199 6.9945 7.54799V0.851994ZM8.6145 4.01999C8.9745 4.01999 9.2825 3.97599 9.5385 3.88799C9.8025 3.79199 10.0185 3.66399 10.1865 3.50399C10.3545 3.34399 10.4745 3.15599 10.5465 2.93999C10.6265 2.72399 10.6665 2.49199 10.6665 2.24399C10.6665 2.02799 10.6385 1.83199 10.5825 1.65599C10.5265 1.47199 10.4345 1.31599 10.3065 1.18799C10.1865 1.05199 10.0305 0.947994 9.8385 0.875993C9.6465 0.795994 9.4105 0.755994 9.1305 0.755994H8.1225V4.01999H8.6145ZM15.1655 7.54799C15.1655 7.73199 15.2015 7.88799 15.2735 8.01599C15.3455 8.13599 15.4495 8.26399 15.5855 8.39999H13.6175C13.7535 8.26399 13.8575 8.13599 13.9295 8.01599C14.0015 7.88799 14.0375 7.73199 14.0375 7.54799V0.851994C14.0375 0.667994 13.9975 0.515994 13.9175 0.395993C13.8455 0.267993 13.7415 0.135993 13.6055 -6.67572e-06H15.5975C15.4615 0.135993 15.3535 0.267993 15.2735 0.395993C15.2015 0.515994 15.1655 0.667994 15.1655 0.851994V7.54799ZM17.9994 7.41599C17.9354 7.61599 17.9314 7.80399 17.9874 7.97999C18.0514 8.14799 18.1514 8.28799 18.2874 8.39999H16.2954C16.4714 8.28799 16.6114 8.16799 16.7154 8.03999C16.8274 7.90399 16.9274 7.71999 17.0154 7.48799L19.2234 0.959994C19.2634 0.823994 19.2674 0.663994 19.2354 0.479994C19.2034 0.287994 19.1034 0.127994 18.9354 -6.67572e-06H20.7954L23.3274 7.45199C23.3994 7.65999 23.4914 7.83199 23.6034 7.96799C23.7234 8.09599 23.8794 8.23999 24.0714 8.39999H21.8634C22.0234 8.27999 22.1274 8.14799 22.1754 8.00399C22.2234 7.85199 22.2114 7.65999 22.1394 7.42799L21.5514 5.60399H18.5754L17.9994 7.41599ZM21.2994 4.82399L20.0634 0.983994L18.8274 4.82399H21.2994ZM24.7972 8.39999C24.9412 8.26399 25.0492 8.13599 25.1212 8.01599C25.1932 7.88799 25.2292 7.73199 25.2292 7.54799V0.851994C25.2292 0.667994 25.1892 0.515994 25.1092 0.395993C25.0372 0.267993 24.9292 0.135993 24.7852 -6.67572e-06H26.1892L29.4772 4.51199C29.6532 4.74399 29.8212 4.97999 29.9812 5.21999C30.1492 5.45199 30.3172 5.68799 30.4852 5.92799V0.851994C30.4852 0.667994 30.4452 0.515994 30.3652 0.395993C30.2932 0.267993 30.1892 0.135993 30.0532 -6.67572e-06H31.8172C31.6732 0.135993 31.5652 0.267993 31.4932 0.395993C31.4212 0.515994 31.3852 0.667994 31.3852 0.851994V8.39999H30.9892L27.3772 3.62399C27.1612 3.32799 26.9492 3.03199 26.7412 2.73599C26.5412 2.43999 26.3372 2.13999 26.1292 1.83599V7.54799C26.1292 7.73199 26.1652 7.88799 26.2372 8.01599C26.3172 8.13599 26.4252 8.26399 26.5612 8.39999H24.7972ZM35.4359 0.851994C35.4359 0.667994 35.3959 0.515994 35.3159 0.395993C35.2439 0.267993 35.1399 0.135993 35.0039 -6.67572e-06H37.6439C38.0919 -6.67572e-06 38.4799 0.0599933 38.8079 0.179993C39.1439 0.299994 39.4199 0.463994 39.6359 0.671993C39.8519 0.879993 40.0119 1.12399 40.1159 1.40399C40.2199 1.68399 40.2719 1.98399 40.2719 2.30399C40.2719 2.77599 40.1599 3.20399 39.9359 3.58799C39.7119 3.97199 39.3479 4.27199 38.8439 4.48799L40.4399 7.45199C40.6319 7.80399 40.9359 8.11999 41.3519 8.39999H39.4199C39.4919 8.23999 39.5119 8.09199 39.4799 7.95599C39.4479 7.81999 39.3959 7.67599 39.3239 7.52399L37.8599 4.73999C37.7479 4.75599 37.6319 4.76799 37.5119 4.77599C37.3919 4.78399 37.2639 4.78799 37.1279 4.78799H36.5639V7.61999C36.5639 7.80399 36.5999 7.94799 36.6719 8.05199C36.7439 8.15599 36.8479 8.27199 36.9839 8.39999H35.0159C35.1519 8.26399 35.2559 8.13599 35.3279 8.01599C35.3999 7.88799 35.4359 7.73199 35.4359 7.54799V0.851994ZM37.0559 4.01999C37.4159 4.01999 37.7239 3.97599 37.9799 3.88799C38.2439 3.79199 38.4599 3.66399 38.6279 3.50399C38.7959 3.34399 38.9159 3.15599 38.9879 2.93999C39.0679 2.72399 39.1079 2.49199 39.1079 2.24399C39.1079 2.02799 39.0799 1.83199 39.0239 1.65599C38.9679 1.47199 38.8759 1.31599 38.7479 1.18799C38.6279 1.05199 38.4719 0.947994 38.2799 0.875993C38.0879 0.795994 37.8519 0.755994 37.5719 0.755994H36.5639V4.01999H37.0559ZM43.6069 7.54799C43.6069 7.73199 43.6429 7.88799 43.7149 8.01599C43.7869 8.13599 43.8909 8.26399 44.0269 8.39999H42.0589C42.1949 8.26399 42.2989 8.13599 42.3709 8.01599C42.4429 7.88799 42.4789 7.73199 42.4789 7.54799V0.851994C42.4789 0.667994 42.4389 0.515994 42.3589 0.395993C42.2869 0.267993 42.1829 0.135993 42.0469 -6.67572e-06H44.0389C43.9029 0.135993 43.7949 0.267993 43.7149 0.395993C43.6429 0.515994 43.6069 0.667994 43.6069 0.851994V7.54799ZM47.5928 7.66799C48.1368 7.66799 48.6008 7.57999 48.9848 7.40399C49.3688 7.21999 49.6848 6.97199 49.9328 6.65999C50.1808 6.34799 50.3608 5.97999 50.4728 5.55599C50.5848 5.13199 50.6408 4.67599 50.6408 4.18799C50.6408 3.70799 50.5848 3.25599 50.4728 2.83199C50.3688 2.40799 50.2008 2.03999 49.9688 1.72799C49.7368 1.41599 49.4368 1.17199 49.0688 0.995993C48.7008 0.811993 48.2528 0.719993 47.7248 0.719993H46.5248V7.66799H47.5928ZM44.9768 8.39999C45.1128 8.26399 45.2168 8.13599 45.2888 8.01599C45.3608 7.88799 45.3968 7.73199 45.3968 7.54799V0.851994C45.3968 0.667994 45.3568 0.515994 45.2768 0.395993C45.2048 0.267993 45.1008 0.135993 44.9648 -6.67572e-06H47.7488C48.4448 -6.67572e-06 49.0488 0.111993 49.5608 0.335993C50.0728 0.551993 50.4928 0.851994 50.8208 1.23599C51.1568 1.61199 51.4048 2.05599 51.5648 2.56799C51.7328 3.07999 51.8168 3.62399 51.8168 4.19999C51.8168 4.77599 51.7328 5.31999 51.5648 5.83199C51.4048 6.33599 51.1568 6.77999 50.8208 7.16399C50.4928 7.54799 50.0728 7.85199 49.5608 8.07599C49.0488 8.29199 48.4448 8.39999 47.7488 8.39999H44.9768ZM56.3001 7.69199C56.6041 7.69199 56.8601 7.65599 57.0681 7.58399C57.2761 7.50399 57.4961 7.39599 57.7281 7.25999L57.5361 8.39999H52.6761C52.8121 8.26399 52.9161 8.13599 52.9881 8.01599C53.0601 7.89599 53.0961 7.73999 53.0961 7.54799V0.851994C53.0961 0.667994 53.0561 0.515994 52.9761 0.395993C52.8961 0.267993 52.7881 0.135993 52.6521 -6.67572e-06H54.6561C54.5201 0.135993 54.4121 0.267993 54.3321 0.395993C54.2601 0.515994 54.2241 0.667994 54.2241 0.851994V7.69199H56.3001ZM59.8842 7.69199H61.9602C62.2642 7.69199 62.5202 7.65599 62.7282 7.58399C62.9362 7.50399 63.1562 7.39599 63.3882 7.25999L63.1962 8.39999H58.3362C58.4722 8.26399 58.5762 8.13599 58.6482 8.01599C58.7202 7.89599 58.7562 7.73999 58.7562 7.54799V0.851994C58.7562 0.667994 58.7162 0.515994 58.6362 0.395993C58.5642 0.267993 58.4602 0.135993 58.3242 -6.67572e-06H63.0282V1.13999C62.9002 1.00399 62.7802 0.899993 62.6682 0.827993C62.5642 0.747993 62.4282 0.707994 62.2602 0.707994H59.8842V3.74399H61.7562C61.9642 3.74399 62.1322 3.72399 62.2602 3.68399C62.3962 3.64399 62.5442 3.54799 62.7042 3.39599V4.76399C62.5442 4.65199 62.3962 4.56399 62.2602 4.49999C62.1322 4.43599 61.9642 4.40399 61.7562 4.40399H59.8842V7.69199ZM66.8401 3.21599C66.9361 3.41599 67.0241 3.60399 67.1041 3.77999C67.1921 3.95599 67.2881 4.15599 67.3921 4.37999C67.4961 4.16399 67.5961 3.95999 67.6921 3.76799C67.7881 3.56799 67.8721 3.38399 67.9441 3.21599L69.0961 0.827993C69.1601 0.691994 69.1961 0.551994 69.2041 0.407994C69.2121 0.263994 69.1801 0.127994 69.1081 -6.67572e-06H70.8481C70.6881 0.0959935 70.5561 0.199994 70.4521 0.311994C70.3561 0.423994 70.2601 0.571994 70.1641 0.755994L67.8241 5.21999V7.49999C67.8241 7.69999 67.8601 7.86399 67.9321 7.99199C68.0041 8.11999 68.1081 8.25599 68.2441 8.39999H66.2761C66.4121 8.25599 66.5161 8.11999 66.5881 7.99199C66.6601 7.86399 66.6961 7.69999 66.6961 7.49999V5.39999L64.3801 0.839993C64.2921 0.655993 64.1961 0.503993 64.0921 0.383993C63.9961 0.263994 63.8561 0.135993 63.6721 -6.67572e-06H65.6161C65.5281 0.0799932 65.4801 0.203993 65.4721 0.371994C65.4721 0.531993 65.5161 0.687993 65.6041 0.839993L66.8401 3.21599Z" fill="black"/>
</svg>
